<svg id="logotipo" xmlns="http://www.w3.org/2000/svg" viewBox="0 0 403.3 103.55"><defs><style>.cls-1{fill:#fff;}.cls-2{fill:#2dcccd;}</style></defs><title>BBVA_TAGLINE_ESP_RGB RIGHT_DDB</title><path class="cls-1" d="M160.22,9,141.09,45.45a1.15,1.15,0,0,1-2,0L119.93,9a1.11,1.11,0,0,0-1-.59H109.7A.83.83,0,0,0,109,9.66l30.14,56.42a1.1,1.1,0,0,0,1.95,0L171.2,9.66a.83.83,0,0,0-.73-1.22H161.2a1.11,1.11,0,0,0-1,.59"/><path class="cls-1" d="M171.08,57.63l19.13-36.42a1.15,1.15,0,0,1,2,0l19.15,36.42a1.11,1.11,0,0,0,1,.59h9.25a.83.83,0,0,0,.74-1.22L192.19.58a1.11,1.11,0,0,0-1.95,0L160.1,57a.83.83,0,0,0,.73,1.22h9.27a1.11,1.11,0,0,0,1-.59"/><path class="cls-1" d="M28,58.22H10.73a1.11,1.11,0,0,1-1.11-1.11V41.65a1.11,1.11,0,0,1,1.11-1.11H28c8.22,0,11.89,2.33,11.89,8.84S36.28,58.22,28,58.22M10.74,16.86h17c6.26,0,9.46,2.68,9.46,7.62S34,32.11,27.75,32.11h-17A1.11,1.11,0,0,1,9.63,31V18a1.11,1.11,0,0,1,1.11-1.11M40.35,35.31c4-2,6.49-6.33,6.49-11.65,0-9.07-7.07-15.22-17.05-15.22H1.11A1.11,1.11,0,0,0,0,9.55v56a1.11,1.11,0,0,0,1.11,1.11H28.53c13.72,0,21-5.9,21-17.46,0-11.29-9.14-13.89-9.14-13.89"/><path class="cls-1" d="M86.81,58.22H69.56a1.11,1.11,0,0,1-1.11-1.11V41.65a1.11,1.11,0,0,1,1.11-1.11H86.81c8.21,0,11.89,2.33,11.89,8.84s-3.59,8.84-11.89,8.84M69.57,16.86h17c6.27,0,9.47,2.68,9.47,7.62s-3.18,7.63-9.47,7.63h-17A1.11,1.11,0,0,1,68.46,31V18a1.11,1.11,0,0,1,1.11-1.11M99.18,35.31c4-2,6.49-6.33,6.49-11.65,0-9.07-7.07-15.22-17-15.22H59.94a1.11,1.11,0,0,0-1.11,1.11v56a1.11,1.11,0,0,0,1.11,1.11H87.36c13.72,0,21-5.9,21-17.46,0-11.29-9.14-13.89-9.14-13.89"/><path class="cls-2" d="M152.58,90.43c0-5.49,3.14-8.63,7.25-8.63a6.31,6.31,0,0,1,6.28,3.86l-2.39,1.43a4,4,0,0,0-3.89-2.69c-2.84,0-4.42,2.35-4.42,6,0,3.86,1.67,6.21,4.58,6.21a4.2,4.2,0,0,0,4.09-3.12l2.44,1.11A6.4,6.4,0,0,1,160,99.15C155.68,99.15,152.58,96.07,152.58,90.43Z"/><path class="cls-2" d="M168.8,98.83v-12h2.55l.23,1.94h0a4.69,4.69,0,0,1,4.22-2.19h.12l.25,2.55a4.47,4.47,0,0,0-.73,0,4.27,4.27,0,0,0-3.88,2.12v7.59Z"/><path class="cls-2" d="M177.11,92.84c0-4.49,3.23-6.23,5.72-6.23s5.26,1.61,5.26,6.48v.66h-8.2a3,3,0,0,0,3.25,3.11,5.33,5.33,0,0,0,3.71-1.53l1.1,1.83a6.75,6.75,0,0,1-5,1.92C179.89,99.08,177.11,97.25,177.11,92.84Zm8.43-1.15c-.14-1.76-1.06-2.82-2.74-2.82a2.93,2.93,0,0,0-2.89,2.82Z"/><path class="cls-2" d="M189.47,95.87c0-2.64,2.21-4.27,7.81-4.9v-.36c0-1.11-.65-1.72-2.08-1.72a5.87,5.87,0,0,0-3.86,1.61l-1.51-1.7a7.93,7.93,0,0,1,5.74-2.19c3.09,0,4.42,1.54,4.42,4.34v7.88h-2.48l-.23-1.54a5.85,5.85,0,0,1-4.4,1.72A3.09,3.09,0,0,1,189.47,95.87Zm7.81-.38V92.84c-3.86.55-5.1,1.38-5.1,2.58,0,1,.65,1.44,1.69,1.44A4.68,4.68,0,0,0,197.28,95.49Z"/><path class="cls-2" d="M202.7,98.83v-12h2.56l.22,1.69a5.71,5.71,0,0,1,4.32-1.94,3.16,3.16,0,0,1,3.52,3.5v8.72h-2.76V90.92c0-1.33-.54-2-1.83-2a4.85,4.85,0,0,0-3.25,1.55v8.36Z"/><path class="cls-2" d="M215.38,92.91c0-4.15,2-6.3,4.78-6.3a4.67,4.67,0,0,1,3.78,1.61v-5.9l2.77-.41V98.83h-2.55l-.22-1.58A4.69,4.69,0,0,1,220.12,99C217.39,99,215.38,97.07,215.38,92.91Zm8.56,2.33V90.36a4.05,4.05,0,0,0-3-1.44c-1.7,0-2.83,1.28-2.83,4,0,2.46,1.09,3.84,2.87,3.84A4.12,4.12,0,0,0,223.94,95.24Z"/><path class="cls-2" d="M228.86,92.84c0-4.4,2.91-6.23,5.85-6.23s5.83,1.83,5.83,6.23-2.92,6.24-5.83,6.24S228.86,97.23,228.86,92.84Zm8.92,0c0-2.22-1-3.89-3.07-3.89s-3.07,1.52-3.07,3.89.92,3.88,3.07,3.88S237.78,95.15,237.78,92.87Z"/><path class="cls-2" d="M247.61,90.47c0-5.62,3.5-8.67,7.54-8.67s7.52,3,7.52,8.67-3.5,8.68-7.52,8.68S247.61,96.1,247.61,90.47Zm12.26,0c0-3.79-1.9-6.07-4.72-6.07s-4.72,2.28-4.72,6.07,1.9,6.15,4.72,6.15S259.87,94.27,259.87,90.47Z"/><path class="cls-2" d="M265.05,103.55V86.86h2.55l.22,1.56a4.75,4.75,0,0,1,3.82-1.81c2.73,0,4.74,2.06,4.74,6.21s-2,6.19-4.78,6.19a4.85,4.85,0,0,1-3.78-1.49v5.62Zm8.56-10.71c0-2.48-1.09-3.86-2.87-3.86a4.15,4.15,0,0,0-2.92,1.49v4.9a4,4,0,0,0,3,1.45C272.5,96.82,273.61,95.62,273.61,92.84Z"/><path class="cls-2" d="M277.88,92.84c0-4.4,2.91-6.23,5.84-6.23s5.83,1.83,5.83,6.23-2.91,6.24-5.83,6.24S277.88,97.23,277.88,92.84Zm8.92,0c0-2.22-1-3.89-3.08-3.89s-3.07,1.52-3.07,3.89.93,3.88,3.07,3.88S286.8,95.15,286.8,92.87Z"/><path class="cls-2" d="M291.72,98.83v-12h2.55l.23,1.94h0a4.7,4.7,0,0,1,4.23-2.19h.11l.25,2.55a4.47,4.47,0,0,0-.73,0,4.27,4.27,0,0,0-3.88,2.12v7.59Z"/><path class="cls-2" d="M301.61,95.53V89.05h-2V86.86h2v-4l2.76-.4v4.4h3.09v2.19h-3.09v6c0,1.29.54,1.7,1.67,1.7a4.83,4.83,0,0,0,1.22-.18l.23,2.19a17.09,17.09,0,0,1-2.19.18C302.77,99,301.61,98.13,301.61,95.53Z"/><path class="cls-2" d="M309.36,95.58V86.86h2.78v8c0,1.27.52,1.9,1.81,1.9a4.89,4.89,0,0,0,3.25-1.58V86.86H320v12h-2.56l-.22-1.67a5.83,5.83,0,0,1-4.29,1.92C310.72,99.08,309.36,98,309.36,95.58Z"/><path class="cls-2" d="M322.8,98.83v-12h2.55l.23,1.69a5.71,5.71,0,0,1,4.31-1.94c2.17,0,3.53,1.13,3.53,3.5v8.72h-2.76V90.92c0-1.33-.54-2-1.83-2a4.83,4.83,0,0,0-3.25,1.55v8.36Z"/><path class="cls-2" d="M336,83.61a1.43,1.43,0,0,1,1.58-1.47,1.48,1.48,0,1,1,0,2.94A1.43,1.43,0,0,1,336,83.61Zm.22,15.22v-12H339v12Z"/><path class="cls-2" d="M341.32,92.91c0-4.15,2-6.3,4.79-6.3a4.63,4.63,0,0,1,3.77,1.61v-5.9l2.78-.41V98.83h-2.55l-.23-1.58A4.66,4.66,0,0,1,346.07,99C343.33,99,341.32,97.07,341.32,92.91Zm8.56,2.33V90.36a4,4,0,0,0-3-1.44c-1.69,0-2.82,1.28-2.82,4,0,2.46,1.08,3.84,2.87,3.84A4.08,4.08,0,0,0,349.88,95.24Z"/><path class="cls-2" d="M354.72,95.87c0-2.64,2.21-4.27,7.81-4.9v-.36c0-1.11-.65-1.72-2.08-1.72a5.87,5.87,0,0,0-3.86,1.61l-1.51-1.7a7.93,7.93,0,0,1,5.74-2.19c3.09,0,4.42,1.54,4.42,4.34v7.88h-2.48l-.23-1.54a5.85,5.85,0,0,1-4.4,1.72A3.09,3.09,0,0,1,354.72,95.87Zm7.81-.38V92.84c-3.86.55-5.1,1.38-5.1,2.58,0,1,.65,1.44,1.69,1.44A4.69,4.69,0,0,0,362.53,95.49Z"/><path class="cls-2" d="M367.3,92.91c0-4.15,2-6.3,4.79-6.3a4.66,4.66,0,0,1,3.77,1.61v-5.9l2.78-.41V98.83h-2.56l-.22-1.58A4.69,4.69,0,0,1,372,99C369.31,99,367.3,97.07,367.3,92.91Zm8.56,2.33V90.36a4,4,0,0,0-3-1.44c-1.69,0-2.82,1.28-2.82,4,0,2.46,1.08,3.84,2.86,3.84A4.1,4.1,0,0,0,375.86,95.24Z"/><path class="cls-2" d="M380.78,92.84c0-4.49,3.23-6.23,5.72-6.23s5.26,1.61,5.26,6.48v.66h-8.2a3,3,0,0,0,3.25,3.11,5.33,5.33,0,0,0,3.71-1.53l1.1,1.83a6.75,6.75,0,0,1-5,1.92C383.56,99.08,380.78,97.25,380.78,92.84Zm8.43-1.15c-.14-1.76-1.06-2.82-2.74-2.82a2.93,2.93,0,0,0-2.89,2.82Z"/><path class="cls-2" d="M393.09,97.18l1.06-1.87a6.6,6.6,0,0,0,4.14,1.62c1.49,0,2.39-.47,2.39-1.31s-.7-1.31-2.69-1.71c-2.53-.52-4.47-1.2-4.47-3.78,0-2.12,1.76-3.52,4.41-3.52a7.77,7.77,0,0,1,4.85,1.52l-1,2a6.35,6.35,0,0,0-3.68-1.29c-1.36,0-2,.5-2,1.22s.65,1.15,2.44,1.54c2.69.54,4.74,1.17,4.74,3.7s-2.28,3.79-5,3.79A7.67,7.67,0,0,1,393.09,97.18Z"/></svg>